<?xml version="1.0" standalone="no"?><!DOCTYPE svg PUBLIC "-//W3C//DTD SVG 1.1//EN" "http://www.w3.org/Graphics/SVG/1.1/DTD/svg11.dtd"><svg t="1603822809634" class="icon" viewBox="0 0 1024 1024" version="1.1" xmlns="http://www.w3.org/2000/svg" p-id="3335" xmlns:xlink="http://www.w3.org/1999/xlink" width="200" height="200"><defs><style type="text/css"></style></defs><path d="M458.71 827.56L512 849.501H37.616V168.229h81.502v584.098l43.886 4.18c102.4 7.313 201.665 31.346 295.706 71.052z m404.376-72.099l41.796-3.134V168.229h81.502v681.273H512l54.335-22.988c95.085-38.66 194.35-62.694 296.75-71.053z" fill="#FFBAC1" p-id="3336"></path><path d="M986.384 151.51h-65.829V71.053c0-4.18-2.09-9.404-5.224-11.494-3.135-3.135-8.36-4.18-12.54-4.18l-42.84 3.135c-103.445 8.36-204.8 33.437-300.93 73.143L512 150.465l-48.065-19.853c-96.13-39.706-197.486-63.739-300.93-73.143l-42.842-3.134c-4.18 0-9.404 1.045-12.539 4.18-3.134 3.134-5.224 7.314-5.224 12.538v81.502H37.616c-9.404 0-16.718 7.314-16.718 16.718v681.274c0 9.404 7.314 16.718 16.718 16.718H987.43c9.404 0 16.718-7.314 16.718-16.718V168.229c-1.045-9.405-8.36-16.719-17.763-16.719z m-413.78 9.404c92.996-38.66 191.216-61.649 291.527-70.008l24.032-3.135v648.882l-27.167 2.09c-103.445 8.359-204.8 33.437-300.93 72.098l-32.393 13.583v-70.008l7.315-3.134c87.771-36.572 179.722-60.604 273.763-72.098 6.27-1.045 11.494-4.18 13.584-9.404 2.09-5.225 1.045-11.494-2.09-16.719-4.18-4.18-9.404-7.314-15.674-6.27-95.085 12.54-188.081 36.572-275.853 72.099v-78.368l81.502-33.436c63.74-26.123 130.613-44.93 199.576-55.38 9.404-1.045 14.628-9.404 13.584-18.808-1.045-8.36-9.404-14.629-18.809-13.584-71.053 11.494-140.016 30.302-206.89 57.47l-68.963 29.257v-78.368l81.502-33.436c63.74-26.123 130.613-44.93 199.576-55.38 9.404-1.045 14.628-9.404 13.584-18.808-1.045-8.36-9.404-14.629-18.809-13.584-71.053 11.494-140.016 30.302-206.89 57.47l-68.963 28.212V413.78l81.502-33.437c63.74-26.123 130.613-44.93 199.576-55.38 9.404-1.045 14.628-9.404 13.584-18.808-1.045-8.36-9.404-14.628-18.809-13.584-71.053 11.494-140.016 30.302-206.89 57.47l-68.963 28.212v-78.367l81.502-33.437c63.74-26.122 130.613-44.93 199.576-55.38 9.404-1.045 14.628-9.404 13.584-18.808-1.045-8.359-9.404-14.628-18.809-13.583-71.053 11.493-140.016 30.302-206.89 57.469l-68.963 28.212v-86.726l43.886-16.719zM135.837 87.771l25.077 2.09c100.31 8.36 198.53 32.392 291.527 70.008l43.886 17.764v86.726l-68.964-28.212c-65.828-27.167-135.836-47.02-206.89-57.47-6.269-1.044-11.493 1.045-15.673 5.225s-5.224 10.449-2.09 16.718c2.09 5.225 7.314 9.404 13.584 10.45 67.918 10.448 134.792 29.257 198.53 55.379l81.503 33.437v78.367l-68.964-28.212c-66.873-27.168-136.881-47.02-207.934-57.47-6.27-1.044-11.494 1.045-15.674 5.225s-5.224 10.449-2.09 16.718c2.09 5.225 7.315 9.404 13.584 10.45 67.918 10.448 134.792 29.256 198.53 55.379l81.503 33.437v78.367l-68.964-28.212c-65.828-27.168-135.836-47.02-206.89-57.47-6.269-1.045-11.493 1.045-15.673 5.225s-5.224 10.449-2.09 16.718c2.09 5.225 7.315 9.404 13.584 10.45 67.918 10.448 134.792 29.256 198.53 55.379l81.503 33.436v78.368l-68.964-28.212c-65.828-27.168-135.836-47.02-206.89-57.47-6.269-1.045-11.493 1.045-15.673 5.225s-5.224 10.449-2.09 16.718c2.09 5.225 7.315 9.404 13.584 10.449 67.918 10.449 134.792 29.257 198.53 55.38l81.503 33.436v78.368c-87.772-36.572-180.768-60.604-275.853-73.143-9.405-1.045-16.719 5.224-18.809 13.584-1.044 9.404 5.225 16.718 14.629 17.763 95.086 11.494 187.037 36.571 275.853 73.143l5.225 2.09v70.008l-30.303-12.54c-96.13-39.705-197.485-64.783-300.93-73.142l-29.257-1.045V87.771zM53.29 183.902h49.11v567.38c0 8.359 6.27 15.673 14.629 16.718l43.885 4.18c11.494 1.044 24.033 2.09 35.527 4.18 4.18 0 8.359 1.044 11.494 2.089 8.359 1.045 15.673 2.09 24.032 3.135 5.225 1.045 9.404 2.09 14.629 2.09 7.314 1.044 14.628 2.09 21.943 4.18 5.224 1.044 9.404 2.089 14.628 3.134 7.315 1.045 13.584 3.134 20.898 4.18 5.225 1.044 9.404 2.09 14.629 4.179 6.27 2.09 13.584 3.135 19.853 5.224 5.224 1.045 9.404 3.135 14.629 4.18 6.269 2.09 13.583 4.18 19.853 6.27 5.224 1.044 9.404 3.134 14.628 5.224 6.27 2.09 13.584 4.18 19.853 7.314 5.225 2.09 9.404 3.135 14.629 5.225 2.09 1.045 4.18 2.09 6.27 2.09H53.288V183.901z m917.42 648.882H595.592c2.09-1.045 4.18-2.09 6.27-2.09 5.224-2.09 9.403-3.135 14.628-5.225 6.27-2.09 12.539-4.18 19.853-6.269 5.224-2.09 10.449-3.135 15.673-5.224 6.27-2.09 12.54-4.18 19.853-6.27 5.225-1.045 10.45-3.135 15.674-4.18 6.27-2.09 13.584-3.134 19.853-5.224 5.224-1.045 10.449-2.09 15.673-4.18 7.315-2.09 13.584-3.134 20.898-4.18 5.225-1.044 9.404-2.089 14.629-3.134 7.314-1.045 14.628-3.135 21.943-4.18 4.18-1.044 9.404-2.09 13.583-2.09 8.36-1.044 15.674-2.089 24.033-3.134 4.18 0 7.314-1.045 11.494-2.09 11.494-1.045 24.033-3.134 36.571-4.18L908.016 768c8.36-1.045 14.629-7.314 14.629-16.718v-567.38h49.11v648.882z" fill="#EA5967" p-id="3337"></path></svg>