<?xml version="1.0" standalone="no"?><!DOCTYPE svg PUBLIC "-//W3C//DTD SVG 1.1//EN" "http://www.w3.org/Graphics/SVG/1.1/DTD/svg11.dtd"><svg t="1603822087753" class="icon" viewBox="0 0 1024 1024" version="1.1" xmlns="http://www.w3.org/2000/svg" p-id="1226" xmlns:xlink="http://www.w3.org/1999/xlink" width="200" height="200"><defs><style type="text/css"></style></defs><path d="M559.463898 576.502137c-33.159709 0-49.847929 24.273774-49.847929 72.821322s16.68822 71.737672 49.847929 71.737672 48.764278-23.840314 48.764278-71.737672-16.254759-72.821323-48.764278-72.821322z" fill="#FF7575" p-id="1227"></path><path d="M920.319558 599.04207C918.585717 414.388002 767.091359 195.057114 728.296666 156.695881a113.566586 113.566586 0 0 1-1.950571 145.209185 28.825107 28.825107 0 0 1-17.33841 11.486697l-8.452475-24.273774C604.327034 18.638791 476.239529 0 476.239529 0c-11.486697 126.787124-43.346025 219.547618-82.790908 286.300497a365.840454 365.840454 0 0 1-91.676844 105.547572 86.692051 86.692051 0 0 0 0-48.981009 171.65026 171.65026 0 0 0-39.011423-68.70345s19.288981 39.228153-38.794692 117.684459-56.349833 207.194001-56.349833 207.194001c0 12.353617-1.733841 24.923965-1.733841 37.711042a378.194071 378.194071 0 1 0 756.171411 0 359.98874 359.98874 0 0 0-1.733841-37.711042zM436.144456 747.935667h-42.045645v-86.692051h-75.422084v86.692051h-41.178724v-198.308066h41.178724V628.517367H392.79843v-78.889766h43.346026z m123.969632 2.167301q-92.977224-2.384031-94.927795-99.912588c1.950571-67.83653 33.59317-102.51335 94.277605-103.813731S650.707281 581.48693 652.874582 650.19038q-3.250952 97.745287-93.410684 99.912588zM826.258683 583.00404h-57.866943v164.931627h-43.346026V583.00404h-57.433483v-33.376439H826.258683z" fill="#FF7575" p-id="1228"></path></svg>