<?xml version="1.0" standalone="no"?><!DOCTYPE svg PUBLIC "-//W3C//DTD SVG 1.1//EN" "http://www.w3.org/Graphics/SVG/1.1/DTD/svg11.dtd"><svg t="1603822748006" class="icon" viewBox="0 0 1024 1024" version="1.1" xmlns="http://www.w3.org/2000/svg" p-id="1511" xmlns:xlink="http://www.w3.org/1999/xlink" width="200" height="200"><defs><style type="text/css"></style></defs><path d="M489.450667 825.28c5.632 0 11.264-1.898667 15.04-5.674667l88.341333-88.682666c3.776-3.776 5.653333-9.450667 5.653333-15.104 0-13.226667-9.408-22.656-22.570666-22.656-5.632 0-11.285333 1.898667-15.04 5.674666l-88.362667 88.682667c-3.754667 3.776-5.632 9.450667-5.632 15.104 0 11.306667 9.386667 22.656 22.570667 22.656z m0 124.544L66.453333 525.226667V221.376c0-13.226667 9.386667-22.656 22.549334-22.656H391.68L814.677333 623.36 489.450667 949.824zM416.128 160.981333c-3.754667-3.776-9.386667-7.552-15.04-7.552H89.002667C51.413333 153.429333 21.333333 183.637333 21.333333 219.477333v313.28c0 5.653333 1.877333 11.306667 5.632 15.104L472.533333 997.013333c3.776 3.776 9.408 5.653333 15.04 5.653334 5.653333 0 11.306667-1.877333 15.04-5.653334l355.328-356.693333c3.754667-3.776 5.632-9.429333 5.632-15.082667 0-5.674667-1.877333-11.328-5.632-15.104L416.106667 160.981333z m-39.466667 552.96c0 13.205333 9.386667 22.613333 22.549334 22.613334 5.632 0 11.264-1.877333 15.04-5.632l22.549333-22.656c3.754667-3.776 5.632-9.429333 5.632-15.104 0-13.205333-9.386667-22.634667-22.549333-22.634667-5.632 0-11.285333 1.877333-15.04 5.653333l-22.549334 22.656a22.826667 22.826667 0 0 0-5.653333 15.082667zM993.237333 474.24L549.589333 26.986667c-3.754667-3.776-9.386667-5.653333-16.917333-5.653334H222.506667C184.896 21.333333 154.816 51.52 154.816 87.381333c0 13.226667 9.386667 22.656 22.549333 22.656s22.570667-9.450667 22.570667-22.656c0-13.226667 9.386667-22.634667 22.549333-22.634666h302.677334l422.976 424.597333-50.752 50.965333c-3.754667 3.776-5.632 9.429333-5.632 15.104 0 13.205333 9.386667 22.634667 22.549333 22.634667 5.653333 0 11.285333-1.877333 15.04-5.653333l67.690667-66.048c3.754667-3.776 5.632-9.450667 5.632-15.104-1.877333-7.552-3.754667-13.226667-9.386667-16.981334z m-503.808 171.733333c5.632 0 11.264-1.898667 15.04-5.674666l45.098667-45.290667c3.776-3.776 5.653333-9.429333 5.653333-15.082667 0-13.226667-9.386667-22.656-22.570666-22.656-5.632 0-11.264 1.898667-15.04 5.653334l-45.12 45.312c-3.754667 3.754667-5.632 9.429333-5.632 15.082666 0 13.226667 9.386667 22.656 22.570666 22.656zM222.485333 378.005333c-13.162667 0-22.549333-9.429333-22.549333-22.634666 0-13.226667 9.386667-22.656 22.549333-22.656s22.570667 9.429333 22.570667 22.656c-1.898667 13.205333-11.306667 22.634667-22.570667 22.634666z m0-88.682666c-37.589333 0-67.669333 30.186667-67.669333 66.048 0 37.738667 30.08 66.048 67.669333 66.048 37.610667 0 67.690667-30.208 67.690667-66.048-1.898667-35.861333-31.978667-66.048-67.690667-66.048z" p-id="1512" fill="#1296db"></path></svg>