<?xml version="1.0" standalone="no"?><!DOCTYPE svg PUBLIC "-//W3C//DTD SVG 1.1//EN" "http://www.w3.org/Graphics/SVG/1.1/DTD/svg11.dtd"><svg t="1603615582015" class="icon" viewBox="0 0 1024 1024" version="1.1" xmlns="http://www.w3.org/2000/svg" p-id="5898" xmlns:xlink="http://www.w3.org/1999/xlink" width="200" height="200"><defs><style type="text/css"></style></defs><path d="M654.08852029 372.60411851c4.45321125 0 8.80285984 0.05178194 13.15250965 0.25890847C644.1982483 246.72321778 514.69264001 150.09888119 358.41597986 150.09888119 185.77635555 150.04709925 45.96622222 267.85008238 45.96622222 413.09727645c0 85.12883675 48.05326105 160.88521599 122.61866549 208.93847704l2.89976532 1.81235318L141.24423941 719.12612386 254.23153895 661.13080889l5.33349808 1.55344593a366.45789392 366.45789392 0 0 0 119.82246283 12.73825659 205.21020682 205.21020682 0 0 1-9.8902732-62.75921541c0-132.56071941 127.43434786-240.11095822 284.59129363-240.11095822z m-186.93132561-92.84428443c24.23375645 0 43.80717511 19.15916683 43.8071751 42.7715449a43.28935939 43.28935939 0 0 1-43.8071751 42.77154368 43.34114133 43.34114133 0 0 1-43.91073899-42.77154368c0-23.61237808 19.67698132-42.7715449 43.91073899-42.7715449z m-217.48242963 85.54308858a43.34114133 43.34114133 0 0 1-43.85895705-42.77154368c0-23.61237808 19.67698132-42.7715449 43.85895705-42.7715449 24.28553838 0 43.91073777 19.15916683 43.91073777 42.7715449 0 23.61237808-19.67698132 42.7715449-43.91073777 42.77154368z" fill="#5FB104" p-id="5899"></path><path d="M408.43693868 623.84810667c0 118.99395792 127.53791052 215.41116799 284.79841894 215.41116799 31.5349523 0 61.82714785-3.83183289 90.0998637-10.97768414l4.86746431-1.29453868 102.94168296 47.48366461-27.4959929-77.98298547 2.58907736-1.50166521C934.17482073 755.63210311 978.03377778 693.64961068 978.03377778 623.84810667c0-118.99395792-127.48612859-215.41116799-284.79842016-215.41116799-157.26050964 0-284.79842016 96.41721006-284.79841894 215.41116799z m343.932928-74.20293333c0-19.31451141 17.86462815-35.00431527 39.97534101-35.00431526 22.11071408 0 39.97534223 15.68980385 39.97534223 35.00431526 0 19.36629214-17.86462815 35.05609599-39.97534223 35.05609599-22.11071408 0-39.97534223-15.68980385-39.97534101-35.05609599z m-198.21970015 0c0-19.31451141 17.91641008-35.00431527 39.97534102-35.00431526 22.11071408 0 40.02712295 15.68980385 40.02712416 35.00431526 0 19.36629214-17.91641008 35.05609599-40.02712416 35.05609599-22.05893215 0-39.97534223-15.68980385-39.97534102-35.05609599z" fill="#5FB104" p-id="5900"></path></svg>