<?xml version="1.0" standalone="no"?><!DOCTYPE svg PUBLIC "-//W3C//DTD SVG 1.1//EN" "http://www.w3.org/Graphics/SVG/1.1/DTD/svg11.dtd"><svg t="1603522054577" class="icon" viewBox="0 0 1024 1024" version="1.1" xmlns="http://www.w3.org/2000/svg" p-id="3675" width="64" height="64" xmlns:xlink="http://www.w3.org/1999/xlink"><defs><style type="text/css"></style></defs><path d="M997.650062 122.75041c-10.88315-19.942442-23.262183-38.14502-39.16894-54.079775-15.966753-15.990751-34.833279-30.349629-54.807718-41.252777-33.521381-18.30257-75.146129-27.421858-115.998938-27.421858H236.321541c-41.772737 0-82.161581 9.379267-117.050856 27.789829-20.086431 10.603172-38.349004 24.586079-54.003781 40.504836-15.726771 15.990751-29.961659 33.949348-40.180861 54.283759C7.931383 156.703758-0.007996 196.47665-0.007996 237.161472v549.681056c0 41.300773 6.683478 82.705539 25.182032 116.526896 10.723162 19.598469 24.762065 39.440919 40.344848 55.17169 15.734771 15.882759 34.329318 28.901742 54.007781 39.820889 33.857355 18.798531 75.362112 25.649996 116.794876 25.649996h551.352925c42.268698 0 81.589626-6.091524 115.918944-25.602 18.954519-10.767159 39.512913-24.45409 54.743723-39.860886 15.690774-15.87476 28.79775-35.401234 39.540911-55.187688 18.262573-33.66137 26.129959-75.494102 26.129958-116.518897V237.157472c0-41.22078-7.923381-80.6337-26.35794-114.407062z" fill="#1989C8" p-id="3676"></path><path d="M389.593566 555.740583c95.112569 0 57.655496 0.067995 150.800219 0.067994-0.751941-41.772737-9.691243-56.823561-15.730771-57.499507-95.296555 0-19.610468-0.035997-130.873776-0.035998 0.243981-3.807703 4.99161-96.120491 6.843466-178.590047h123.858323c3.035763-30.429623-4.283665-56.743567-18.070588-58.411437-167.998875 0-65.270901 0.183986-219.666839 0.183986 3.383736-13.070979 7.455418-28.529771 12.147052-43.360613 7.207437-22.78222 15.326803-44.464526 19.07051-53.37583-3.059761-1.903851-8.371346-0.583954-21.682306 2.583798-15.510788 4.631638-24.45409 9.21928-37.545067 20.426405-6.831466 5.847543-11.895071 13.406953-15.970753 21.826294-14.142895 34.749285-42.320694 131.70971-78.869838 198.460496 56.715569-3.399734 84.601391-36.025186 93.992657-61.919163 3.495727-9.639247 7.091446-18.594547 9.151285-26.769908 23.922131-0.183986 42.200703-0.195985 75.342114-0.195985 0.347973 32.797438-0.475963 96.520459-5.795547 178.81403-66.43481 0-97.2804-0.463964-135.333427-0.463964-19.566471 5.307585-29.929662 37.065104-33.061417 57.835482l0.551956 0.551957h161.171409c-3.935693 31.037575-5.187595 46.288384-18.29857 91.76883-22.282259 67.178752-56.867557 120.742567-105.331771 168.942802-12.938989 12.870994-30.937583 29.169721-48.584205 43.068635l-1.65587 2.207827c16.598703 14.394875 74.082212-0.215983 87.785141-4.967611 11.103133-3.851699 22.298258-6.823467 30.365628-13.802922 30.841591-26.677916 68.778627-85.63731 93.024732-174.042403 87.649152 102.296008 107.951566 133.049605 130.025842 158.579611h2.207828c6.971455-25.805984 11.919069-66.666792 2.759784-86.681228-0.611952-2.81978-2.911773-6.151519-5.339583-9.915225-43.940567-52.571893-43.328615-51.547973-91.036887-103.923881-28.28979 22.666229-34.757285 28.28579-34.757285 28.28579s6.587485-24.726068 8.57133-33.429389c6.323506-27.821826 6.795469-40.424842 9.935224-66.218826z m476.118803-303.636279c-141.592938 0-114.29907 0.223983-280.3101 0.223983-3.599719 0-8.171362 3.367737-8.171362 7.855386 0 316.119303-0.031998 44.060558-0.031998 523.65109 0 3.299742 3.047762 7.415421 8.163363 7.415421 32.069495 0 35.497227 0.047996 44.348535-0.039997 2.547801 0.015999 7.743395 28.565768 19.054511 59.923318 60.343286-39.152941 87.325178-55.815639 101.036107-59.687337 38.828966-0.183986 109.95541-0.235982 116.062932-0.235981 3.147754 0 6.951457-3.863698 6.951457-7.607406 0-349.18072 0.207984-166.534989 0.207984-524.639013-0.004-4.22767-4.743629-6.603484-7.311429-6.859464zM813.48445 727.863136c0 2.267823-2.30382 4.60764-4.211671 4.60764-3.699711 0-36.777127 0.031998-60.303289 0.139989-0.831935 0-2.199828 0.551957-3.279744 1.295899-14.794844 10.207203-36.853121 24.338099-72.950301 46.160393-6.207515-20.950363-11.711085-47.512288-13.254964-47.524287-5.359581 0.055996 1.491883 0.023998-17.930599 0.023998-3.099758 0-4.947613-2.491805-4.947614-4.491649 0-290.553301 0.019998-222.346629 0.019999-413.863667 0-2.719788 2.767784-4.759628 4.947613-4.759628 100.576142 0 81.15766-0.13199 166.942958-0.13199 2.091837 0 5.099602 2.011843 5.099601 4.571643-0.004 216.951051-0.13199 202.424186-0.131989 413.971659z" fill="#FFFFFF" p-id="3677"></path></svg>