<?xml version="1.0" standalone="no"?><!DOCTYPE svg PUBLIC "-//W3C//DTD SVG 1.1//EN" "http://www.w3.org/Graphics/SVG/1.1/DTD/svg11.dtd"><svg t="1603894257849" class="icon" viewBox="0 0 1024 1024" version="1.1" xmlns="http://www.w3.org/2000/svg" p-id="5449" xmlns:xlink="http://www.w3.org/1999/xlink" width="200" height="200"><defs><style type="text/css"></style></defs><path d="M637 342.7m-214.7 0a214.7 214.7 0 1 0 429.4 0 214.7 214.7 0 1 0-429.4 0Z" fill="#c7b714" p-id="5450"></path><path d="M780.1 890.5H242.6c-41.4 0-75-33.6-75-75V205.7c0-41.4 33.6-75 75-75h537.5c41.4 0 75 33.6 75 75v609.8c0 41.3-33.7 75-75 75zM242.6 180.7c-13.8 0-25 11.2-25 25v609.8c0 13.8 11.2 25 25 25h537.5c13.8 0 25-11.2 25-25V205.7c0-13.8-11.2-25-25-25H242.6z" fill="#484848" p-id="5451"></path><path d="M576.6 608H317.1c-13.8 0-25-11.2-25-25s11.2-25 25-25h259.5c13.8 0 25 11.2 25 25s-11.2 25-25 25zM669.4 476.4H317.1c-13.8 0-25-11.2-25-25s11.2-25 25-25h352.3c13.8 0 25 11.2 25 25s-11.2 25-25 25zM706.8 739.6H317.1c-13.8 0-25-11.2-25-25s11.2-25 25-25h389.6c13.8 0 25 11.2 25 25s-11.1 25-24.9 25z" fill="#484848" p-id="5452"></path><path d="M336.8 332.5m-44.4 0a44.4 44.4 0 1 0 88.8 0 44.4 44.4 0 1 0-88.8 0Z" fill="#484848" p-id="5453"></path></svg>