<?xml version="1.0" standalone="no"?><!DOCTYPE svg PUBLIC "-//W3C//DTD SVG 1.1//EN" "http://www.w3.org/Graphics/SVG/1.1/DTD/svg11.dtd"><svg t="1604458123211" class="icon" viewBox="0 0 1024 1024" version="1.1" xmlns="http://www.w3.org/2000/svg" p-id="1166" xmlns:xlink="http://www.w3.org/1999/xlink" width="200" height="200"><defs><style type="text/css"></style></defs><path d="M63.488 512c0 247.637333 200.704 448.341333 448.341333 448.341333S960.170667 759.466667 960.170667 512 759.466667 63.658667 511.829333 63.658667 63.488 264.362667 63.488 512z m0 0" fill="#FDDEDE" p-id="1167"></path><path d="M511.829333 275.285333c-130.730667 0-236.544 105.984-236.544 236.544s105.984 236.544 236.544 236.544 236.544-105.813333 236.544-236.373333c0-62.805333-24.917333-122.88-69.290666-167.253333-44.373333-44.544-104.618667-69.461333-167.253334-69.461334z m0 0" fill="#F56C6C" p-id="1168"></path><path d="M539.306667 512l94.72-94.72c7.509333-7.68 7.509333-19.968 0-27.648-7.68-7.509333-19.968-7.509333-27.648 0l-94.72 94.72-94.72-94.72c-7.68-7.509333-19.968-7.509333-27.648 0-7.509333 7.68-7.509333 19.968 0 27.648l94.72 94.72-94.72 94.72c-7.509333 7.68-7.509333 19.968 0 27.648 7.68 7.509333 19.968 7.509333 27.648 0l94.72-94.72 94.72 94.72c7.68 7.509333 19.968 7.509333 27.648 0 7.509333-7.68 7.509333-19.968 0-27.648L539.306667 512z m0 0" fill="#FFFFFF" p-id="1169"></path></svg>