<?xml version="1.0" standalone="no"?><!DOCTYPE svg PUBLIC "-//W3C//DTD SVG 1.1//EN" "http://www.w3.org/Graphics/SVG/1.1/DTD/svg11.dtd"><svg t="1603824514098" class="icon" viewBox="0 0 1024 1024" version="1.1" xmlns="http://www.w3.org/2000/svg" p-id="15969" xmlns:xlink="http://www.w3.org/1999/xlink" width="200" height="200"><defs><style type="text/css"></style></defs><path d="M701.155556 449.948444c5.731556-5.717333 7.68-13.952 5.091555-21.504-2.645333-7.68-9.514667-13.255111-17.891555-14.506666l-68.266667-20.152889c-5.646222-0.839111-15.544889-21.404444-18.019556-26.552889l-82.488889-194.375111c-5.219556-14.549333-16.113778-19.271111-27.192888-11.633778-7.210667 4.977778-36.280889 63.004444-39.950223 70.584889l-62.222222 129.180444a17.237333 17.237333 0 0 1-12.999111 9.571556l-204.814222 27.192889c-8.263111 1.237333-18.133333 3.754667-20.750222 11.363555-2.588444 7.523556-0.625778 15.744 5.105777 21.461334L329.955556 604.444444c3.939556 3.939556 5.745778 9.543111 4.821333 15.047112l-13.880889 64.64c-1.365333 8.064 2.119111 16.042667 9.073778 20.821333 6.926222 4.750222 16.568889 5.319111 24.206222 1.251555l110.535111-58.311111a17.344 17.344 0 0 1 16.355556 0L588.8 692.792889c7.495111 4.024889 17.166222 3.512889 24.192-1.308445 6.912-4.750222 10.382222-12.728889 9.031111-20.778666l-7.239111-123.022222c-0.924444-5.504 15.104-19.982222 19.043556-23.921778l67.328-73.813334z" fill="#FFC824" p-id="15970"></path><path d="M909.496889 411.235556c-9.329778-26.965333-32.896-46.350222-61.511111-50.602667l-20.821334-3.086222c-0.896-0.184889-1.720889-0.312889-2.545777-0.398223l-0.341334-0.028444c-0.611556-0.056889-1.223111-0.085333-1.834666-0.085333-12.330667 0-22.371556 10.040889-22.371556 22.371555 0 8.106667 4.408889 15.601778 11.491556 19.555556 2.773333 1.550222 5.916444 2.503111 9.088 2.744889l1.137777 0.085333 0.014223 0.113778 19.640889 2.915555c12.074667 1.792 21.959111 9.813333 25.799111 20.920889 3.740444 10.936889 0.924444 22.855111-7.367111 31.118222L715.221333 601.287111a22.358756 22.358756 0 0 0-6.243555 19.498667l33.550222 200.305778c1.962667 11.662222-3.029333 23.168-13.041778 30.051555-10.069333 6.897778-24.078222 7.651556-34.830222 1.877333l-172.060444-92.629333a22.556444 22.556444 0 0 0-10.595556-2.659555c-3.669333 0-7.338667 0.924444-10.595556 2.659555l-171.960888 92.586667c-10.851556 5.802667-24.846222 5.077333-34.844445-1.792-10.055111-6.912-15.075556-18.460444-13.112889-30.122667l33.536-200.291555c1.194667-7.111111-1.152-14.392889-6.243555-19.498667l-144.64-144.398222c-8.291556-8.263111-11.121778-20.167111-7.381334-31.047111 3.783111-10.979556 13.923556-19.214222 25.813334-20.992l197.347555-29.340445c7.338667-1.080889 13.624889-5.717333 16.853334-12.401778l85.76-178.062222c5.290667-10.951111 16.867556-18.033778 29.482666-18.033778 12.615111 0 24.163556 7.068444 29.44 18.019556l85.788445 178.076444c3.214222 6.670222 9.514667 11.306667 16.839111 12.387556l82.944 11.975111c2.062222 0.611556 4.181333 0.910222 6.343111 0.910222 12.330667 0 22.371556-10.040889 22.371555-22.371555 0-9.856-6.314667-18.446222-15.729777-21.376l-0.497778-0.142223c-1.877333-0.526222-3.797333-0.810667-5.717333-0.853333l-0.184889-0.014222-71.253334-10.595556-0.327111-0.682666-80.327111-166.727111c-12.657778-26.282667-40.021333-43.292444-69.688889-43.292445-29.653333 0-57.016889 17.009778-69.717333 43.320889l-80.64 167.409778-0.739556 0.113778-184.903111 27.491555c-28.629333 4.238222-52.195556 23.651556-61.511111 50.645333-9.344 27.221333-2.417778 56.817778 18.090667 77.226667l136.448 136.263111-31.630222 188.899556c-4.821333 28.515556 7.68 57.713778 31.857777 74.353778 23.751111 16.298667 55.651556 18.005333 81.265778 4.352l161.450667-86.926223 161.521778 86.940445a78.961778 78.961778 0 0 0 36.992 9.287111c15.843556 0 31.146667-4.736 44.273777-13.681778 24.120889-16.64 36.608-45.809778 31.815111-74.311111l-31.658666-188.928 0.526222-0.512 135.964444-135.736889c20.48-20.394667 27.406222-50.005333 18.076445-77.283555z" fill="#260B09" p-id="15971"></path></svg>