<?xml version="1.0" standalone="no"?><!DOCTYPE svg PUBLIC "-//W3C//DTD SVG 1.1//EN" "http://www.w3.org/Graphics/SVG/1.1/DTD/svg11.dtd"><svg t="1604458116151" class="icon" viewBox="0 0 1024 1024" version="1.1" xmlns="http://www.w3.org/2000/svg" p-id="868" xmlns:xlink="http://www.w3.org/1999/xlink" width="200" height="200"><defs><style type="text/css"></style></defs><path d="M63.146667 511.146667C63.146667 758.613333 263.68 959.146667 511.146667 959.146667S959.146667 758.613333 959.146667 511.146667 758.613333 63.146667 511.146667 63.146667 63.146667 263.68 63.146667 511.146667z m0 0" fill="#D4F0C6" p-id="869"></path><path d="M511.146667 243.2c-148.138667 0-267.946667 119.978667-267.946667 267.946667s119.978667 267.946667 267.946667 267.946666c148.138667 0 267.946667-119.978667 267.946666-267.946666 0-71.168-28.16-139.264-78.506666-189.44-50.176-50.346667-118.272-78.506667-189.44-78.506667z m0 0" fill="#67C23A" p-id="870"></path><path d="M460.8 586.24l-92.842667-94.549333c-2.730667-4.949333-7.509333-8.874667-12.970666-10.410667-5.632-1.536-11.605333-0.853333-16.384 2.048-10.410667 6.144-14.165333 19.456-8.192 30.208l106.837333 119.637333c4.096 7.168 11.264 11.264 18.773333 11.264 3.754667 0 7.338667-1.024 10.581334-2.901333 1.877333-1.194667 3.754667-2.56 4.949333-4.096l0.170667-0.170667 216.405333-221.525333c8.533333-8.704 8.533333-22.698667 0-31.402667-4.096-4.266667-9.557333-6.485333-15.189333-6.485333-5.802667 0-11.264 2.389333-15.36 6.485333L460.8 586.24z m0 0" fill="#FFFFFF" p-id="871"></path></svg>