<?xml version="1.0" standalone="no"?><!DOCTYPE svg PUBLIC "-//W3C//DTD SVG 1.1//EN" "http://www.w3.org/Graphics/SVG/1.1/DTD/svg11.dtd"><svg t="1603616055480" class="icon" viewBox="0 0 1067 1024" version="1.1" xmlns="http://www.w3.org/2000/svg" p-id="6701" xmlns:xlink="http://www.w3.org/1999/xlink" width="208.3984375" height="200"><defs><style type="text/css"></style></defs><path d="M993.020219 391.478682c-94.671315-125.375526-260.985788-158.63842-411.948155-104.906052 5.117368 2.558684 10.234737 2.558684 15.352105 5.117368 222.605525 74.201842 340.304998 314.718156 266.103156 537.323682-20.469474 58.849737-51.173684 110.02342-89.553947 153.521052 48.615-12.793421 97.229999-33.262895 138.168947-63.967105 168.873157-130.492894 202.136052-371.009209 81.877894-527.088945z" fill="#07C160" p-id="6702"></path><path d="M437.785749 266.103156c10.234737-7.676053 17.910789-12.793421 28.145526-20.469473h2.558684c10.234737-5.117368 20.469474-10.234737 28.145526-17.910789 0 0 2.558684 0 2.558684-2.558685 20.469474-10.234737 40.938947-17.910789 61.408421-25.586842 2.558684 0 2.558684 0 5.117369-2.558684 10.234737-2.558684 20.469474-7.676053 30.70421-10.234737h2.558684c10.234737-2.558684 20.469474-5.117368 30.70421-5.117368h5.117369c15.352105-2.558684 25.586842-2.558684 35.821579-2.558684h7.676052c10.234737 0 23.028158-2.558684 33.262895-2.558684 12.793421 0 25.586842 0 38.380263 2.558684h5.117368c12.793421 0 23.028158 2.558684 35.821579 5.117368h5.117368c12.793421 2.558684 23.028158 5.117368 33.262895 7.676053 2.558684 0 2.558684 0 5.117368 2.558684 12.793421 2.558684 25.586842 5.117368 35.821579 10.234737-5.117368-10.234737-10.234737-17.910789-10.234737-17.91079C785.766799 69.084473 662.949958 0 529.89838 0c-79.31921 0-202.136052 28.145526-294.248683 138.168947-61.408421 74.201842-81.877894 161.197104-69.084473 248.192367 7.676053 58.849737 40.938947 138.168947 89.553947 186.783946 17.910789-125.375526 84.436578-235.398946 181.666578-307.042104z" fill="#07C160" p-id="6703"></path><path d="M529.89838 790.633417c-33.262895 0-66.525789-5.117368-97.23-10.234737h-12.793421c-10.234737 0-17.910789 2.558684-25.586842 7.676053l-102.347368 66.525789c-2.558684 2.558684-5.117368 2.558684-10.234736 2.558684-7.676053 0-15.352105-7.676053-17.91079-15.352105 0-5.117368 0-7.676053 2.558685-12.793421 0-2.558684 10.234737-51.173684 17.910789-81.877895 0-2.558684 2.558684-7.676053 0-10.234736 0-10.234737-5.117368-20.469474-15.352105-25.586842-110.02342-74.201842-184.225262-191.901315-199.577368-312.159472-28.145526 43.497631-40.938947 76.760526-56.291052 127.93421-53.732368 186.783946 63.967105 409.389471 253.309736 470.797892 220.046841 71.643158 427.300261-7.676053 498.943418-194.459999 7.676053-23.028158 17.910789-61.408421 20.469473-92.112631-74.201842 53.732368-153.521052 79.31921-255.868419 79.31921z" fill="#07C160" p-id="6704"></path></svg>